<svg xmlns="http://www.w3.org/2000/svg" width="46" height="48" viewBox="0 0 46 48" fill="none">
  <g clip-path="url(#clip0_68_304)">
    <path d="M2.76782 2.21444L28.221 0.293548C31.3476 0.0195381 32.1508 0.204248 34.1168 1.66454L42.2418 7.51275C43.5818 8.51855 44.028 8.79256 44.028 9.88766V41.9619C44.028 43.9721 43.3136 45.1612 40.8126 45.3426L11.2548 47.1718C9.37802 47.2625 8.48424 46.9885 7.50122 45.7087L1.518 37.7591C0.44482 36.296 0 35.2009 0 33.9206V5.41044C0 3.76685 0.71438 2.39633 2.76782 2.21444Z" fill="white"/>
    <path fill-rule="evenodd" clip-rule="evenodd" d="M28.221 0.294018L2.76782 2.21491C0.71438 2.39633 0 3.76732 0 5.41044V33.9206C0 35.2004 0.44482 36.2955 1.518 37.7591L7.50122 45.7082C8.48424 46.988 9.37802 47.2625 11.2548 47.1713L40.813 45.343C43.3122 45.1612 44.0284 43.9721 44.0284 41.9623V9.88813C44.0284 8.84943 43.6269 8.55004 42.4447 7.66362L34.1168 1.66454C32.1512 0.204248 31.3476 0.0195381 28.221 0.293548V0.294018ZM11.9232 9.36314C9.50958 9.52905 8.96218 9.56665 7.59138 8.42784L4.10642 5.59562C3.75222 5.22902 3.93024 4.77171 4.82264 4.68053L29.2914 2.85364C31.3462 2.67034 32.4162 3.40213 33.2198 4.04133L37.4164 7.14803C37.5958 7.24062 38.042 7.78723 37.5052 7.78723L12.236 9.34152L11.9232 9.36314ZM9.10938 41.6883V14.4598C9.10938 13.2707 9.4668 12.7222 10.5368 12.6301L39.56 10.8939C40.5444 10.8032 40.9892 11.4424 40.9892 12.6296V39.6767C40.9892 40.8658 40.8098 41.8716 39.203 41.9623L11.4296 43.6073C9.82284 43.698 9.10984 43.1514 9.10984 41.6883H9.10938ZM36.5254 15.9196C36.7034 16.7421 36.5254 17.5646 35.7204 17.6586L34.3818 17.9298V38.0331C33.2194 38.6723 32.1494 39.0375 31.2552 39.0375C29.8259 39.0375 29.469 38.5802 28.3986 37.2106L19.6448 23.1388V36.7533L22.414 37.3939C22.414 37.3939 22.414 39.0389 20.1797 39.0389L14.0203 39.4041C13.8409 39.0375 14.0203 38.1243 14.6446 37.9424L16.2532 37.4865V19.4855L14.0208 19.3008C13.8414 18.4783 14.2876 17.2906 15.5388 17.1985L22.1476 16.744L31.2556 30.9977V18.3876L28.934 18.115C28.7546 17.1078 29.469 16.376 30.3614 16.2867L36.5254 15.9196Z" fill="black"/>
  </g>
  <defs>
    <clipPath id="clip0_68_304">
      <rect width="46" height="47" fill="white" transform="translate(0 0.1875)"/>
    </clipPath>
  </defs>
</svg>