<svg xmlns="http://www.w3.org/2000/svg" width="48" height="48" viewBox="0 0 48 48" fill="none">
  <path d="M46.7688 25.8715C48.3754 13.2936 39.4928 1.79442 26.9379 0.187756C14.3829 -1.41891 2.83788 7.46366 1.23121 20.0186C-0.375454 32.5736 8.50712 44.0957 21.0621 45.7253C33.64 47.332 45.1391 38.4494 46.7688 25.8715Z" fill="#FF6C37"/>
  <path d="M32.2857 14.7396L22.5997 24.4255L19.8684 21.6941C29.3937 12.1689 30.3347 12.9952 32.2857 14.7396Z" fill="white"/>
  <path d="M22.5997 24.6551C22.5308 24.6551 22.4849 24.6322 22.439 24.5862L19.6847 21.8549C19.5929 21.7631 19.5929 21.6254 19.6847 21.5336C29.3706 11.8477 30.3805 12.7658 32.4233 14.602C32.4692 14.6479 32.4921 14.6938 32.4921 14.7626C32.4921 14.8315 32.4692 14.8774 32.4233 14.9233L22.7374 24.5862C22.7144 24.6322 22.6456 24.6551 22.5997 24.6551ZM20.1897 21.6942L22.5997 24.1042L31.9413 14.7626C30.2428 13.2478 29.0952 12.7887 20.1897 21.6942Z" fill="#FF6C37"/>
  <path d="M25.377 27.2028L22.7374 24.5632L32.4233 14.8773C35.017 17.4939 31.138 21.7401 25.377 27.2028Z" fill="white"/>
  <path d="M25.3769 27.4323C25.308 27.4323 25.2621 27.4094 25.2162 27.3635L22.5767 24.7239C22.5308 24.678 22.5308 24.6321 22.5308 24.5633C22.5308 24.4944 22.5537 24.4485 22.5996 24.4026L32.2855 14.7167C32.3773 14.6249 32.5151 14.6249 32.6069 14.7167C33.2036 15.2675 33.525 16.0479 33.502 16.8513C33.4561 19.399 30.5641 22.6353 25.5605 27.3635C25.4916 27.4094 25.4228 27.4323 25.3769 27.4323ZM23.0587 24.5633C24.5276 26.0552 25.1473 26.6519 25.3769 26.8815C29.2329 23.2091 32.9741 19.4449 32.9971 16.8513C33.02 16.2545 32.7905 15.6577 32.4003 15.1987L23.0587 24.5633Z" fill="#FF6C37"/>
  <path d="M19.9145 21.7631L21.8655 23.714C21.9114 23.7599 21.9114 23.8058 21.8655 23.8517C21.8425 23.8747 21.8425 23.8747 21.8196 23.8747L17.78 24.7469C17.5734 24.7698 17.3898 24.6321 17.3439 24.4255C17.3209 24.3108 17.3668 24.196 17.4357 24.1272L19.7768 21.786C19.8227 21.7401 19.8916 21.7172 19.9145 21.7631Z" fill="white"/>
  <path d="M17.711 24.9763C17.3667 24.9763 17.1143 24.7009 17.1143 24.3566C17.1143 24.1959 17.1831 24.0353 17.2979 23.9205L19.639 21.5794C19.7767 21.4646 19.9604 21.4646 20.0981 21.5794L22.049 23.5303C22.1867 23.6451 22.1867 23.8516 22.049 23.9894C22.0031 24.0353 21.9572 24.0582 21.8884 24.0812L17.8487 24.9534C17.8028 24.9534 17.7569 24.9763 17.711 24.9763ZM19.8456 22.0155L17.5963 24.2648C17.5504 24.3107 17.5274 24.3795 17.5733 24.4484C17.5963 24.5173 17.6651 24.5402 17.734 24.5173L21.5211 23.691L19.8456 22.0155Z" fill="#FF6C37"/>
  <path d="M37.4042 9.36871C35.9353 7.94566 33.5712 7.99157 32.1481 9.48347C30.7251 10.9754 30.771 13.3165 32.2629 14.7396C33.4794 15.9101 35.3156 16.1167 36.7616 15.2445L34.145 12.6279L37.4042 9.36871Z" fill="white"/>
  <path d="M34.8333 16.0019C32.6528 16.0019 30.8855 14.2346 30.8855 12.0541C30.8855 9.87366 32.6528 8.10632 34.8333 8.10632C35.8432 8.10632 36.8302 8.49651 37.5646 9.20804C37.6105 9.25394 37.6335 9.29985 37.6335 9.3687C37.6335 9.43756 37.6105 9.48347 37.5646 9.52937L34.4661 12.6279L36.899 15.0609C36.9908 15.1527 36.9908 15.2904 36.899 15.3822C36.8761 15.4052 36.8761 15.4052 36.8531 15.4281C36.2564 15.7954 35.5448 16.0019 34.8333 16.0019ZM34.8333 8.58832C32.9053 8.58832 31.3445 10.1491 31.3675 12.0771C31.3675 14.0051 32.9283 15.5658 34.8563 15.5429C35.3842 15.5429 35.9121 15.4281 36.3941 15.1757L33.9841 12.7886C33.9382 12.7427 33.9152 12.6968 33.9152 12.6279C33.9152 12.5591 33.9382 12.5132 33.9841 12.4673L37.0597 9.39166C36.44 8.86375 35.6596 8.58832 34.8333 8.58832Z" fill="#FF6C37"/>
  <path d="M37.4729 9.43763L37.427 9.39172L34.1448 12.628L36.7384 15.2216C36.9909 15.061 37.2433 14.8773 37.4499 14.6708C38.9189 13.2248 38.9189 10.8836 37.4729 9.43763Z" fill="white"/>
  <path d="M36.7614 15.4741C36.6925 15.4741 36.6466 15.4512 36.6007 15.4053L33.9841 12.7887C33.9382 12.7428 33.9153 12.6969 33.9153 12.628C33.9153 12.5592 33.9382 12.5133 33.9841 12.4674L37.2434 9.20814C37.3352 9.11633 37.4729 9.11633 37.5647 9.20814L37.6336 9.25404C39.1714 10.7919 39.1714 13.2707 37.6565 14.8315C37.427 15.061 37.1745 15.2676 36.8991 15.4282C36.8302 15.4512 36.7843 15.4741 36.7614 15.4741ZM34.4661 12.628L36.7843 14.9462C36.968 14.8315 37.1516 14.6708 37.2893 14.5331C38.5976 13.2248 38.6664 11.0902 37.404 9.71309L34.4661 12.628Z" fill="#FF6C37"/>
  <path d="M32.6758 15.1526C32.1249 14.6018 31.2298 14.6018 30.6789 15.1526L22.0259 23.8057L23.4719 25.2517L32.6299 17.2184C33.2266 16.7134 33.2725 15.8183 32.7676 15.2215C32.7217 15.1985 32.6987 15.1756 32.6758 15.1526Z" fill="white"/>
  <path d="M23.449 25.4814C23.3801 25.4814 23.3342 25.4584 23.2883 25.4125L21.8423 23.9665C21.7505 23.8747 21.7505 23.737 21.8423 23.6452L30.4953 14.9921C31.138 14.3495 32.1709 14.3495 32.8135 14.9921C33.4562 15.6348 33.4562 16.6677 32.8135 17.3103C32.7906 17.3333 32.7676 17.3562 32.7447 17.3792L23.5867 25.4125C23.5637 25.4584 23.5178 25.4814 23.449 25.4814ZM22.3472 23.8058L23.4719 24.9305L32.4693 17.0349C32.9742 16.6218 33.0201 15.8643 32.607 15.3594C32.1938 14.8544 31.4364 14.8085 30.9314 15.2217C30.9085 15.2446 30.8855 15.2676 30.8396 15.2905L22.3472 23.8058Z" fill="#FF6C37"/>
  <path d="M15.3928 33.6523C15.3009 33.6982 15.255 33.79 15.278 33.8818L15.6682 35.5344C15.76 35.7639 15.6223 36.0393 15.3698 36.1082C15.1862 36.1771 14.9796 36.1082 14.8649 35.9705L12.3401 33.4687L20.58 25.2288L23.4261 25.2747L25.3541 27.2027C24.895 27.5929 22.1178 30.2783 15.3928 33.6523Z" fill="white"/>
  <path d="M15.209 36.3377C15.0254 36.3377 14.8418 36.2689 14.727 36.1312L12.2252 33.6294C12.1793 33.5835 12.1564 33.5376 12.1564 33.4687C12.1564 33.3998 12.1793 33.3539 12.2252 33.308L20.4651 25.0681C20.511 25.0222 20.5799 24.9993 20.6258 24.9993L23.4719 25.0452C23.5408 25.0452 23.5867 25.0681 23.6326 25.114L25.5606 27.042C25.6065 27.0879 25.6294 27.1568 25.6294 27.2256C25.6294 27.2945 25.6065 27.3404 25.5376 27.3863L25.3769 27.524C22.944 29.6586 19.6389 31.7932 15.5304 33.8359L15.9206 35.4656C15.9894 35.7639 15.8517 36.0853 15.5763 36.2459C15.4386 36.3148 15.3238 36.3377 15.209 36.3377ZM12.6843 33.4687L15.0484 35.8098C15.1172 35.9246 15.2549 35.9705 15.3697 35.9017C15.4845 35.8328 15.5304 35.6951 15.4615 35.5803L15.0713 33.9277C15.0254 33.7212 15.1172 33.5376 15.3008 33.4457C19.3634 31.403 22.6456 29.2914 25.0556 27.2027L23.3571 25.5042L20.7176 25.4583L12.6843 33.4687Z" fill="#FF6C37"/>
  <path d="M10.389 35.4427L12.3629 33.4688L15.3008 36.4067L10.6185 36.0853C10.4119 36.0624 10.2742 35.8788 10.2972 35.6722C10.2972 35.5804 10.3201 35.4886 10.389 35.4427Z" fill="white"/>
  <path d="M15.3009 36.6133L10.5956 36.2919C10.2514 36.269 10.0218 35.9706 10.0448 35.6263C10.0677 35.4886 10.1136 35.3509 10.2284 35.2591L12.2023 33.2852C12.2941 33.1934 12.4318 33.1934 12.5236 33.2852L15.4616 36.2231C15.5304 36.2919 15.5534 36.3837 15.5075 36.4755C15.4616 36.5674 15.3927 36.6133 15.3009 36.6133ZM12.363 33.7901L10.5497 35.6034C10.4809 35.6493 10.4809 35.764 10.5497 35.8099C10.5727 35.8329 10.5956 35.8558 10.6416 35.8558L14.7041 36.1313L12.363 33.7901Z" fill="#FF6C37"/>
  <path d="M19.7766 26.2847C19.6389 26.2847 19.5471 26.1699 19.5471 26.0551C19.5471 25.9863 19.5701 25.9404 19.616 25.8945L21.8424 23.6681C21.9342 23.5763 22.0719 23.5763 22.1637 23.6681L23.6097 25.1141C23.6785 25.183 23.7015 25.2518 23.6785 25.3436C23.6556 25.4125 23.5867 25.4813 23.4949 25.5043L19.8225 26.2847C19.7996 26.2847 19.7766 26.2847 19.7766 26.2847ZM22.003 24.1501L20.4882 25.665L22.967 25.1371L22.003 24.1501Z" fill="#FF6C37"/>
  <path d="M23.4259 25.2747L20.9012 25.8256C20.7175 25.8715 20.5339 25.7567 20.488 25.5731C20.4651 25.4584 20.488 25.3436 20.5798 25.2518L21.9799 23.8517L23.4259 25.2747Z" fill="white"/>
  <path d="M20.8554 26.0551C20.5341 26.0551 20.2816 25.8027 20.2816 25.4813C20.2816 25.3207 20.3505 25.183 20.4423 25.0682L21.8424 23.6681C21.9342 23.5763 22.0719 23.5763 22.1637 23.6681L23.6097 25.1141C23.6786 25.183 23.7015 25.2518 23.6786 25.3436C23.6556 25.4125 23.5868 25.4813 23.495 25.5043L20.9702 26.0551C20.9243 26.0551 20.8784 26.0551 20.8554 26.0551ZM22.003 24.1501L20.7636 25.3895C20.7177 25.4354 20.7177 25.4813 20.7407 25.5272C20.7636 25.5731 20.8095 25.5961 20.8784 25.5961L22.99 25.1371L22.003 24.1501Z" fill="#FF6C37"/>
  <path d="M37.4958 11.641C37.4499 11.5033 37.2892 11.4344 37.1515 11.4803C37.0138 11.5263 36.9449 11.6869 36.9908 11.8246C36.9908 11.8476 37.0138 11.8705 37.0138 11.8935C37.1515 12.1689 37.1056 12.5132 36.922 12.7657C36.8302 12.8804 36.8531 13.0411 36.9449 13.1329C37.0597 13.2247 37.2204 13.2018 37.3122 13.087C37.6564 12.6509 37.7253 12.1001 37.4958 11.641Z" fill="#FF6C37"/>
</svg>