<svg width="83" height="83" viewBox="0 0 83 83" fill="none" xmlns="http://www.w3.org/2000/svg">
<g id="Group 20">
<rect id="Rectangle 44" width="83" height="83" fill="#021815"/>
<g id="Group">
<path id="Vector" d="M48.55 18.6547C49.0245 18.7875 49.4682 19.0125 49.8557 19.3168C50.2432 19.6212 50.567 19.9989 50.8084 20.4284C51.0499 20.8579 51.2043 21.3308 51.2629 21.8201C51.3215 22.3093 51.2831 22.8053 51.15 23.2797L40.0725 62.7472C39.8039 63.705 39.1659 64.5169 38.2988 65.0042C37.4317 65.4916 36.4065 65.6145 35.4487 65.346C34.4909 65.0775 33.6791 64.4395 33.1917 63.5723C32.7044 62.7052 32.5814 61.68 32.85 60.7222L43.9275 21.2497C44.0605 20.7754 44.2857 20.332 44.5901 19.9448C44.8946 19.5575 45.2723 19.234 45.7018 18.9928C46.1313 18.7516 46.6041 18.5974 47.0933 18.5389C47.5824 18.4805 48.0782 18.519 48.5525 18.6522L48.55 18.6547ZM30.9 28.7422C31.6022 29.4454 31.9967 30.3985 31.9967 31.3922C31.9967 32.386 31.6022 33.3391 30.9 34.0422L22.95 41.9997L30.905 49.9547C31.6081 50.6582 32.003 51.6122 32.0028 52.6069C32.0025 53.6015 31.6072 54.5553 30.9037 55.2585C30.2002 55.9616 29.2462 56.3565 28.2516 56.3563C27.2569 56.3561 26.3031 55.9607 25.6 55.2572L14.9925 44.6497C14.2902 43.9466 13.8958 42.9935 13.8958 41.9997C13.8958 41.006 14.2902 40.0529 14.9925 39.3497L25.5975 28.7422C25.9457 28.3938 26.3592 28.1173 26.8143 27.9287C27.2695 27.7401 27.7573 27.643 28.25 27.643C28.7426 27.643 29.2304 27.7401 29.6856 27.9287C30.1407 28.1173 30.5517 28.3938 30.9 28.7422ZM53.1 34.0422C52.7315 33.6989 52.436 33.2849 52.231 32.8249C52.0261 32.3649 51.9159 31.8684 51.907 31.3649C51.8981 30.8613 51.9907 30.3612 52.1793 29.8943C52.3679 29.4273 52.6487 29.0031 53.0048 28.647C53.3609 28.291 53.785 28.0102 54.252 27.8216C54.7189 27.633 55.219 27.5404 55.7226 27.5493C56.2261 27.5582 56.7226 27.6684 57.1826 27.8733C57.6426 28.0783 58.0566 28.3738 58.4 28.7422L69.0075 39.3472C69.7105 40.0505 70.1054 41.0041 70.1054 41.9985C70.1054 42.9929 69.7105 43.9465 69.0075 44.6497L58.4025 55.2572C58.0543 55.6056 57.6409 55.8819 57.186 56.0705C56.731 56.2591 56.2433 56.3562 55.7508 56.3563C55.2583 56.3564 54.7706 56.2595 54.3156 56.0712C53.8605 55.8828 53.447 55.6067 53.0987 55.2585C52.7504 54.9103 52.474 54.497 52.2854 54.042C52.0969 53.587 51.9998 53.0994 51.9996 52.6069C51.9995 52.1144 52.0964 51.6267 52.2848 51.1716C52.4731 50.7166 52.7493 50.3031 53.0975 49.9547L61.0525 41.9997L53.1 34.0422Z" fill="#0ABFAD"/>
</g>
</g>
</svg>
