<svg xmlns="http://www.w3.org/2000/svg" width="31" height="46" viewBox="0 0 31 46" fill="none">
  <g clip-path="url(#clip0_68_270)">
    <path d="M7.7515 46C12.0286 46 15.5 42.5653 15.5 38.3333V30.6666H7.7515C3.47436 30.6666 0.00305176 34.1013 0.00305176 38.3333C0.00305176 42.5653 3.47436 46 7.7515 46Z" fill="#0ACF83"/>
    <path d="M0.00305176 23C0.00305176 18.768 3.47436 15.3334 7.7515 15.3334H15.5V30.6667H7.7515C3.47436 30.6667 0.00305176 27.232 0.00305176 23Z" fill="#A259FF"/>
    <path d="M0.00305176 7.66667C0.00305176 3.43467 3.47436 0 7.7515 0H15.5V15.3333H7.7515C3.47436 15.3333 0.00305176 11.8987 0.00305176 7.66667Z" fill="#F24E1E"/>
    <path d="M15.5 0H23.2485C27.5256 0 30.9969 3.43467 30.9969 7.66667C30.9969 11.8987 27.5256 15.3333 23.2485 15.3333H15.5V0Z" fill="#FF7262"/>
    <path d="M30.9969 23C30.9969 27.232 27.5256 30.6667 23.2485 30.6667C18.9713 30.6667 15.5 27.232 15.5 23C15.5 18.768 18.9713 15.3334 23.2485 15.3334C27.5256 15.3334 30.9969 18.768 30.9969 23Z" fill="#1ABCFE"/>
  </g>
  <defs>
    <clipPath id="clip0_68_270">
      <rect width="31" height="46" fill="white"/>
    </clipPath>
  </defs>
</svg>