<svg xmlns="http://www.w3.org/2000/svg" width="46" height="46" viewBox="0 0 46 46" fill="none">
  <path fill-rule="evenodd" clip-rule="evenodd" d="M23 0C10.2925 0 0 10.5162 0 23.5C0 33.8988 6.58375 42.6819 15.7262 45.7956C16.8762 46.0013 17.3075 45.2962 17.3075 44.6794C17.3075 44.1213 17.2788 42.2706 17.2788 40.3025C11.5 41.3894 10.005 38.8631 9.545 37.5412C9.28625 36.8656 8.165 34.78 7.1875 34.2219C6.3825 33.7812 5.2325 32.6944 7.15875 32.665C8.97 32.6356 10.2638 34.3687 10.695 35.0737C12.765 38.6281 16.0713 37.6294 17.3938 37.0125C17.595 35.485 18.1987 34.4569 18.86 33.8694C13.7425 33.2819 8.395 31.255 8.395 22.2663C8.395 19.7106 9.28625 17.5956 10.7525 15.9506C10.5225 15.3631 9.7175 12.9544 10.9825 9.72312C10.9825 9.72312 12.9087 9.10625 17.3075 12.1319C19.1475 11.6031 21.1025 11.3387 23.0575 11.3387C25.0125 11.3387 26.9675 11.6031 28.8075 12.1319C33.2063 9.07688 35.1325 9.72312 35.1325 9.72312C36.3975 12.9544 35.5925 15.3631 35.3625 15.9506C36.8288 17.5956 37.72 19.6812 37.72 22.2663C37.72 31.2844 32.3438 33.2819 27.2263 33.8694C28.06 34.6037 28.7788 36.0138 28.7788 38.2169C28.7788 41.36 28.75 43.8862 28.75 44.6794C28.75 45.2962 29.1812 46.0306 30.3313 45.7956C39.4163 42.6819 46 33.8694 46 23.5C46 10.5162 35.7075 0 23 0Z" fill="white"/>
</svg>