<svg xmlns="http://www.w3.org/2000/svg" width="52" height="42" viewBox="0 0 52 42" fill="none">
  <path d="M5.2 42C3.77 42 2.54627 41.4864 1.5288 40.4591C0.511333 39.4319 0.00173333 38.1955 0 36.75V5.25C0 3.80625 0.5096 2.57075 1.5288 1.5435C2.548 0.516249 3.77173 0.00175 5.2 0H46.8C48.23 0 49.4546 0.5145 50.4738 1.5435C51.493 2.5725 52.0017 3.808 52 5.25V36.75C52 38.1937 51.4913 39.4301 50.4738 40.4591C49.4563 41.4881 48.2317 42.0017 46.8 42H5.2ZM26 23.625L46.8 10.5V5.25L26 18.375L5.2 5.25V10.5L26 23.625Z" fill="white" fill-opacity="0.7"/>
</svg>