<svg xmlns="http://www.w3.org/2000/svg" width="95" height="96" viewBox="0 0 95 96" fill="none">
  <path fill-rule="evenodd" clip-rule="evenodd" d="M49.6555 54.6709L49.4601 54.8144C49.2879 57.3719 48.854 61 48.854 61H47.1234C47.1234 61 46.6912 57.3514 46.5173 54.8144L46.3236 54.6914C46.3236 54.6914 23.1045 38.2584 43.1639 13.9069C45.5005 11.269 47.5126 8.58853 47.9249 8.03193C47.968 7.98936 48.0326 7.98936 48.0756 8.03193C48.4863 8.58853 50.4984 11.269 52.8367 13.9069C72.8961 38.2584 49.677 54.6914 49.6555 54.6709ZM49.3094 53.0421V53.0011L48.0541 26.4847C48.0541 26.4028 47.9249 26.4028 47.9249 26.4847L46.6697 53.0011V53.0421C46.9512 53.4741 47.9895 54.3208 47.9895 54.3208C47.9895 54.3208 49.0279 53.4741 49.3094 53.0421Z" fill="#00ED63"/>
</svg>