<svg xmlns="http://www.w3.org/2000/svg" width="52" height="52" viewBox="0 0 52 52" fill="none">
  <path d="M10.4578 22.5044C14.6178 30.68 21.32 37.3533 29.4956 41.5422L35.8511 35.1867C36.6311 34.4067 37.7867 34.1467 38.7978 34.4933C42.0333 35.5622 45.5289 36.14 49.1111 36.14C50.7 36.14 52 37.44 52 39.0289V49.1111C52 50.7 50.7 52 49.1111 52C21.9844 52 0 30.0156 0 2.88889C0 1.3 1.3 0 2.88889 0H13C14.5889 0 15.8889 1.3 15.8889 2.88889C15.8889 6.5 16.4667 9.96667 17.5356 13.2022C17.8533 14.2133 17.6222 15.34 16.8133 16.1489L10.4578 22.5044Z" fill="white" fill-opacity="0.7"/>
</svg>